# xmcd CD database file
#
# Track frame offsets:
#	150
#	25833
#	37019
#	57294
#	75605
#	103806
#	111047
#	132804
#	140523
#
# Disc length: 2127 seconds
#
# Revision: 0
# Processed by: cddbd v1.5.1PL0 Copyright (c) Steve Scherf et al.
# Submitted via: CDex 1.51
#
DISCID=75084d09
DTITLE=Studio Aurora - 遠い旅路
DYEAR=2005
DGENRE=Instrumental
TTITLE0=遠い旅路
TTITLE1=時の守り樹
TTITLE2=四番目の季節
TTITLE3=忘れられた都
TTITLE4=夕映に飛ぶ鳥
TTITLE5=在りし人の夢
TTITLE6=光り舞う翡
TTITLE7=十月の空
TTITLE8=西からの贈り物
EXTD=YEAR: 2005
EXTT0=
EXTT1=
EXTT2=
EXTT3=
EXTT4=
EXTT5=
EXTT6=
EXTT7=
EXTT8=
PLAYORDER=
